<mxfile host="65bd71144e">
    <diagram id="V4_brCV4ZyWI2Ep8prZI" name="第1頁">
        <mxGraphModel dx="776" dy="360" grid="1" gridSize="10" guides="1" tooltips="1" connect="1" arrows="1" fold="1" page="1" pageScale="1" pageWidth="827" pageHeight="1169" math="0" shadow="0">
            <root>
                <mxCell id="0"/>
                <mxCell id="1" parent="0"/>
                <mxCell id="2" value="Customer" style="rounded=0;whiteSpace=wrap;html=1;" parent="1" vertex="1">
                    <mxGeometry x="50" y="200" width="120" height="40" as="geometry"/>
                </mxCell>
                <mxCell id="3" value="Employee" style="swimlane;fontStyle=0;childLayout=stackLayout;horizontal=1;startSize=30;horizontalStack=0;resizeParent=1;resizeParentMax=0;resizeLast=0;collapsible=1;marginBottom=0;whiteSpace=wrap;html=1;" parent="1" vertex="1">
                    <mxGeometry x="210" y="200" width="140" height="120" as="geometry"/>
                </mxCell>
                <mxCell id="4" value="employeeID" style="text;strokeColor=none;fillColor=none;align=left;verticalAlign=middle;spacingLeft=4;spacingRight=4;overflow=hidden;points=[[0,0.5],[1,0.5]];portConstraint=eastwest;rotatable=0;whiteSpace=wrap;html=1;" parent="3" vertex="1">
                    <mxGeometry y="30" width="140" height="30" as="geometry"/>
                </mxCell>
                <mxCell id="5" value="employeeName" style="text;strokeColor=none;fillColor=none;align=left;verticalAlign=middle;spacingLeft=4;spacingRight=4;overflow=hidden;points=[[0,0.5],[1,0.5]];portConstraint=eastwest;rotatable=0;whiteSpace=wrap;html=1;" parent="3" vertex="1">
                    <mxGeometry y="60" width="140" height="30" as="geometry"/>
                </mxCell>
                <mxCell id="6" value="salary" style="text;strokeColor=none;fillColor=none;align=left;verticalAlign=middle;spacingLeft=4;spacingRight=4;overflow=hidden;points=[[0,0.5],[1,0.5]];portConstraint=eastwest;rotatable=0;whiteSpace=wrap;html=1;" parent="3" vertex="1">
                    <mxGeometry y="90" width="140" height="30" as="geometry"/>
                </mxCell>
                <mxCell id="23" value="Classname" style="swimlane;fontStyle=1;align=center;verticalAlign=top;childLayout=stackLayout;horizontal=1;startSize=26;horizontalStack=0;resizeParent=1;resizeParentMax=0;resizeLast=0;collapsible=1;marginBottom=0;" parent="1" vertex="1">
                    <mxGeometry x="380" y="200" width="160" height="130" as="geometry"/>
                </mxCell>
                <mxCell id="24" value="studentID&#10;studentName&#10;studentAddr" style="text;strokeColor=none;fillColor=none;align=left;verticalAlign=top;spacingLeft=4;spacingRight=4;overflow=hidden;rotatable=0;points=[[0,0.5],[1,0.5]];portConstraint=eastwest;" parent="23" vertex="1">
                    <mxGeometry y="26" width="160" height="54" as="geometry"/>
                </mxCell>
                <mxCell id="25" value="" style="line;strokeWidth=1;fillColor=none;align=left;verticalAlign=middle;spacingTop=-1;spacingLeft=3;spacingRight=3;rotatable=0;labelPosition=right;points=[];portConstraint=eastwest;strokeColor=inherit;" parent="23" vertex="1">
                    <mxGeometry y="80" width="160" height="8" as="geometry"/>
                </mxCell>
                <mxCell id="26" value="student()&#10;getStudentRec()" style="text;strokeColor=none;fillColor=none;align=left;verticalAlign=top;spacingLeft=4;spacingRight=4;overflow=hidden;rotatable=0;points=[[0,0.5],[1,0.5]];portConstraint=eastwest;" parent="23" vertex="1">
                    <mxGeometry y="88" width="160" height="42" as="geometry"/>
                </mxCell>
            </root>
        </mxGraphModel>
    </diagram>
    <diagram id="TQOB3aQBzI46e7nku60P" name="第2頁">
        <mxGraphModel dx="1001" dy="360" grid="1" gridSize="10" guides="1" tooltips="1" connect="1" arrows="1" fold="1" page="1" pageScale="1" pageWidth="827" pageHeight="1169" math="0" shadow="0">
            <root>
                <mxCell id="0"/>
                <mxCell id="1" parent="0"/>
                <mxCell id="L5-6KaPLSJeZr9mei9Ol-4" style="edgeStyle=none;html=1;endArrow=none;endFill=0;" parent="1" source="L5-6KaPLSJeZr9mei9Ol-1" target="L5-6KaPLSJeZr9mei9Ol-2" edge="1">
                    <mxGeometry relative="1" as="geometry"/>
                </mxCell>
                <mxCell id="L5-6KaPLSJeZr9mei9Ol-5" value="1" style="edgeLabel;html=1;align=center;verticalAlign=top;resizable=0;points=[];" parent="L5-6KaPLSJeZr9mei9Ol-4" vertex="1" connectable="0">
                    <mxGeometry x="-0.8693" relative="1" as="geometry">
                        <mxPoint as="offset"/>
                    </mxGeometry>
                </mxCell>
                <mxCell id="L5-6KaPLSJeZr9mei9Ol-6" value="1..*" style="edgeLabel;html=1;align=center;verticalAlign=top;resizable=0;points=[];" parent="L5-6KaPLSJeZr9mei9Ol-4" vertex="1" connectable="0">
                    <mxGeometry x="0.8486" relative="1" as="geometry">
                        <mxPoint as="offset"/>
                    </mxGeometry>
                </mxCell>
                <mxCell id="L5-6KaPLSJeZr9mei9Ol-7" value="教導" style="edgeLabel;html=1;align=center;verticalAlign=bottom;resizable=0;points=[];" parent="L5-6KaPLSJeZr9mei9Ol-4" vertex="1" connectable="0">
                    <mxGeometry x="-0.0668" y="1" relative="1" as="geometry">
                        <mxPoint as="offset"/>
                    </mxGeometry>
                </mxCell>
                <mxCell id="L5-6KaPLSJeZr9mei9Ol-1" value="老師" style="html=1;" parent="1" vertex="1">
                    <mxGeometry x="190" y="270" width="110" height="50" as="geometry"/>
                </mxCell>
                <mxCell id="L5-6KaPLSJeZr9mei9Ol-2" value="學生" style="html=1;" parent="1" vertex="1">
                    <mxGeometry x="430" y="270" width="110" height="50" as="geometry"/>
                </mxCell>
                <mxCell id="L5-6KaPLSJeZr9mei9Ol-9" value="" style="triangle;whiteSpace=wrap;html=1;fillColor=#1ba1e2;fontColor=#ffffff;strokeColor=none;" parent="1" vertex="1">
                    <mxGeometry x="390" y="280" width="10" height="10" as="geometry"/>
                </mxCell>
            </root>
        </mxGraphModel>
    </diagram>
</mxfile>